<svg width="408" height="85" viewBox="0 0 408 85" fill="none" xmlns="http://www.w3.org/2000/svg">
<g clip-path="url(#clip0)">
<path d="M245.228 16.8401L234.578 46.1001C234.358 46.7401 234.108 47.3301 233.858 47.9101C233.698 48.2701 233.548 48.6301 233.388 48.9501C233.358 49.0001 233.338 49.0601 233.308 49.1101C233.198 49.3401 233.078 49.5801 232.948 49.8001C230.238 54.5901 225.118 57.8101 219.248 57.8101H219.128C213.578 57.7601 208.838 55.1401 206.078 50.7601C209.328 49.2601 210.228 48.4301 211.988 46.8801C213.528 49.2001 216.148 50.7501 219.128 50.7801H219.248C219.478 50.7801 219.698 50.7601 219.938 50.7501C221.798 50.6601 223.238 50.1301 224.378 49.1101C225.518 48.2801 226.438 47.1801 227.078 45.9001L226.778 45.2001C226.778 45.1801 226.798 45.1801 226.798 45.1701L221.978 33.7901L218.828 26.3501L214.808 16.8401H223.058L227.668 28.7801L230.658 36.5001L231.908 32.7301L237.148 16.8401H245.228Z" fill="#1D1A4D"/>
<path d="M104.968 39.45H123.318V46.61H92.5781V41.45L110.968 24.19H92.5781V17.03H123.318V22.62L104.968 39.45Z" fill="#1D1A4D"/>
<path d="M129.949 6.58993C130.499 5.50993 131.489 4.65993 132.659 4.29993C135.859 3.31993 138.809 5.81993 138.809 8.80993C138.809 11.3499 136.679 13.4799 134.079 13.4799C130.799 13.4799 128.219 9.97993 129.949 6.58993ZM130.289 46.6099V17.0299H137.919V46.6099H130.289Z" fill="#1D1A4D"/>
<path d="M172.288 20.76C175.128 23.77 176.548 27.4399 176.548 31.82C176.548 36.1899 175.128 39.9199 172.288 42.9399C169.508 45.9499 166.078 47.43 162.108 47.43C157.968 47.43 154.778 46.01 152.528 43.11V58.43H144.898V17.03H152.528V20.52C154.778 17.62 157.968 16.2 162.108 16.2C166.078 16.21 169.508 17.75 172.288 20.76ZM160.698 40.16C163.058 40.16 165.018 39.3899 166.558 37.8499C168.148 36.2599 168.918 34.24 168.918 31.82C168.918 29.3899 168.148 27.38 166.558 25.84C165.018 24.25 163.068 23.4799 160.698 23.4799C158.328 23.4799 156.378 24.25 154.838 25.84C153.298 27.38 152.528 29.3899 152.528 31.82C152.528 34.24 153.298 36.2599 154.838 37.8499C156.378 39.3999 158.328 40.16 160.698 40.16Z" fill="#1D1A4D"/>
<path d="M209.351 20.76C212.191 23.77 213.611 27.4399 213.611 31.82C213.611 36.1899 212.191 39.9199 209.351 42.9399C206.571 45.9499 203.141 47.43 199.171 47.43C195.031 47.43 191.841 46.01 189.591 43.11V58.43H181.961V17.03H189.591V20.52C191.841 17.62 195.031 16.2 199.171 16.2C203.131 16.21 206.571 17.75 209.351 20.76ZM197.751 40.16C200.111 40.16 202.071 39.3899 203.611 37.8499C205.201 36.2599 205.971 34.24 205.971 31.82C205.971 29.3899 205.201 27.38 203.611 25.84C202.071 24.25 200.121 23.4799 197.751 23.4799C195.381 23.4799 193.431 24.25 191.891 25.84C190.351 27.38 189.581 29.3899 189.581 31.82C189.581 34.24 190.351 36.2599 191.891 37.8499C193.431 39.3999 195.381 40.16 197.751 40.16Z" fill="#1D1A4D"/>
<path d="M250.612 42.95C247.652 39.93 246.172 36.27 246.172 31.83C246.172 27.39 247.652 23.72 250.612 20.71C253.632 17.69 257.352 16.21 261.792 16.21C267.532 16.21 272.612 19.17 275.042 23.84L268.472 27.68C267.292 25.25 264.752 23.72 261.732 23.72C257.182 23.72 253.812 27.09 253.812 31.83C253.812 34.14 254.582 36.09 256.052 37.62C257.532 39.1 259.422 39.87 261.732 39.87C264.812 39.87 267.352 38.39 268.542 35.96L275.162 39.75C272.562 44.43 267.532 47.44 261.792 47.44C257.352 47.44 253.632 45.96 250.612 42.95Z" fill="#7869D8"/>
<path d="M287.06 22.1199C288.48 18.3299 292.03 16.4399 296.05 16.4399V24.9599C293.74 24.6699 291.61 25.1399 289.78 26.3799C287.95 27.6199 287.06 29.6299 287.06 32.4699V46.6099H279.43V17.0299H287.06V22.1199Z" fill="#7869D8"/>
<path d="M313.448 47.44C309.068 47.44 305.338 45.96 302.328 42.95C299.308 39.93 297.828 36.2 297.828 31.83C297.828 27.45 299.308 23.78 302.328 20.77C305.338 17.76 309.068 16.21 313.448 16.21C317.818 16.21 321.548 17.75 324.568 20.77C327.588 23.78 329.128 27.45 329.128 31.83C329.128 36.2 327.588 39.93 324.568 42.95C321.548 45.96 317.818 47.44 313.448 47.44ZM313.448 39.98C315.758 39.98 317.638 39.21 319.188 37.68C320.728 36.14 321.498 34.19 321.498 31.82C321.498 29.45 320.728 27.5 319.188 25.96C317.648 24.42 315.758 23.65 313.448 23.65C311.138 23.65 309.248 24.42 307.708 25.96C306.228 27.5 305.468 29.45 305.468 31.82C305.468 34.18 306.238 36.14 307.708 37.68C309.248 39.22 311.138 39.98 313.448 39.98Z" fill="#7869D8"/>
<path d="M366.64 17.03H374.74L365.34 46.61H358.06L352.62 28.69L347.18 46.61H339.91L330.5 17.03H338.61L343.64 35.19L349.02 17.03H356.23L361.61 35.25L366.64 17.03Z" fill="#7869D8"/>
<path d="M400.151 5.20996H407.781V46.62H400.151V43.13C397.911 46.03 394.711 47.45 390.571 47.45C386.611 47.45 383.171 45.97 380.341 42.96C377.561 39.94 376.141 36.21 376.141 31.84C376.141 27.46 377.561 23.79 380.341 20.78C383.181 17.77 386.611 16.22 390.571 16.22C394.711 16.22 397.911 17.64 400.151 20.54V5.20996ZM391.981 40.16C394.351 40.16 396.301 39.39 397.841 37.85C399.381 36.26 400.151 34.24 400.151 31.82C400.151 29.39 399.381 27.38 397.841 25.84C396.301 24.25 394.351 23.48 391.981 23.48C389.621 23.48 387.661 24.25 386.071 25.84C384.531 27.38 383.761 29.39 383.761 31.82C383.761 34.24 384.531 36.26 386.071 37.85C387.671 39.4 389.621 40.16 391.981 40.16Z" fill="#7869D8"/>
<path d="M174.359 76.34C174.359 77.3 174.019 78.1 173.329 78.73C172.639 79.36 171.789 79.66 170.799 79.66H165.949V68.21H170.459C171.439 68.21 172.259 68.52 172.929 69.13C173.599 69.74 173.939 70.5 173.939 71.43C173.939 72.38 173.579 73.15 172.859 73.72C173.849 74.29 174.359 75.18 174.359 76.34ZM168.199 70.32V72.84H170.449C171.149 72.84 171.679 72.3 171.679 71.58C171.679 70.86 171.169 70.32 170.449 70.32H168.199ZM170.799 77.55C171.569 77.55 172.119 76.98 172.119 76.19C172.119 75.42 171.559 74.85 170.799 74.85H168.199V77.55H170.799Z" fill="#1D1A4D"/>
<path d="M180.131 77.5H184.951V79.66H177.871V68.21H184.861V70.37H180.121V72.8H184.451V74.93H180.121V77.5H180.131Z" fill="#1D1A4D"/>
<path d="M196.14 68.21V70.37H193.05V79.65H190.8V70.37H187.73V68.21H196.14Z" fill="#1D1A4D"/>
<path d="M207.012 68.21V70.37H203.922V79.65H201.672V70.37H198.602V68.21H207.012Z" fill="#1D1A4D"/>
<path d="M212.561 77.5H217.381V79.66H210.301V68.21H217.291V70.37H212.551V72.8H216.881V74.93H212.551V77.5H212.561Z" fill="#1D1A4D"/>
<path d="M227.29 79.65L224.99 75.68H223.27V79.65H221.02V68.21H225.6C226.66 68.21 227.56 68.59 228.3 69.32C229.04 70.06 229.41 70.95 229.41 72C229.41 73.42 228.53 74.73 227.2 75.33L229.73 79.64H227.29V79.65ZM223.27 70.32V73.7H225.59C226.44 73.7 227.14 72.93 227.14 72C227.14 71.07 226.44 70.32 225.59 70.32H223.27Z" fill="#1D1A4D"/>
<path d="M246.781 68.21V70.37H243.691V79.65H241.441V70.37H238.371V68.21H246.781Z" fill="#1D1A4D"/>
<path d="M254.838 79.88C253.188 79.88 251.778 79.31 250.618 78.16C249.478 77 248.898 75.59 248.898 73.93C248.898 72.27 249.468 70.86 250.618 69.71C251.778 68.55 253.188 67.98 254.838 67.98C256.488 67.98 257.898 68.55 259.058 69.71C260.218 70.85 260.788 72.26 260.788 73.93C260.788 75.6 260.218 77 259.058 78.16C257.888 79.31 256.488 79.88 254.838 79.88ZM254.838 77.68C255.888 77.68 256.768 77.34 257.468 76.63C258.168 75.93 258.528 75.03 258.528 73.93C258.528 72.83 258.168 71.94 257.468 71.23C256.768 70.53 255.888 70.17 254.838 70.17C253.788 70.17 252.908 70.53 252.208 71.23C251.508 71.93 251.148 72.83 251.148 73.93C251.148 75.03 251.508 75.92 252.208 76.63C252.908 77.33 253.788 77.68 254.838 77.68Z" fill="#1D1A4D"/>
<path d="M275.641 73.51V74.39C275.641 76.02 275.121 77.35 274.071 78.36C273.021 79.37 271.671 79.88 270.021 79.88C268.251 79.88 266.781 79.31 265.621 78.16C264.461 77 263.891 75.59 263.891 73.94C263.891 72.27 264.461 70.87 265.611 69.71C266.771 68.55 268.191 67.98 269.891 67.98C272.031 67.98 273.891 69.03 274.871 70.64L272.941 71.75C272.401 70.82 271.221 70.17 269.871 70.17C268.781 70.17 267.881 70.53 267.171 71.25C266.471 71.95 266.121 72.85 266.121 73.95C266.121 75.03 266.481 75.93 267.181 76.63C267.901 77.33 268.851 77.68 270.021 77.68C271.771 77.68 272.951 76.86 273.351 75.51H269.891V73.52L275.641 73.51Z" fill="#1D1A4D"/>
<path d="M281.541 77.5H286.361V79.66H279.281V68.21H286.271V70.37H281.531V72.8H285.861V74.93H281.531V77.5H281.541Z" fill="#1D1A4D"/>
<path d="M297.551 68.21V70.37H294.461V79.65H292.211V70.37H289.141V68.21H297.551Z" fill="#1D1A4D"/>
<path d="M307.352 68.21H309.592V79.65H307.352V74.91H303.102V79.65H300.852V68.21H303.102V72.75H307.352V68.21Z" fill="#1D1A4D"/>
<path d="M316.01 77.5H320.83V79.66H313.75V68.21H320.74V70.37H316V72.8H320.33V74.93H316V77.5H316.01Z" fill="#1D1A4D"/>
<path d="M330.739 79.65L328.439 75.68H326.719V79.65H324.469V68.21H329.049C330.109 68.21 331.009 68.59 331.749 69.32C332.489 70.06 332.859 70.95 332.859 72C332.859 73.42 331.979 74.73 330.649 75.33L333.179 79.64H330.739V79.65ZM326.719 70.32V73.7H329.039C329.889 73.7 330.589 72.93 330.589 72C330.589 71.07 329.889 70.32 329.039 70.32H326.719Z" fill="#1D1A4D"/>
<path d="M68.9487 35.9C72.3887 32.46 72.3887 26.85 68.9487 23.41C65.4787 19.94 59.9287 19.94 56.5087 23.36L53.1887 26.68C52.6087 27.26 51.6687 27.26 51.0887 26.68L47.3887 22.98C45.8887 21.48 43.9187 20.47 41.8087 20.34C39.3787 20.19 37.0687 21.07 35.3587 22.77C33.6487 24.48 32.7687 26.79 32.9287 29.22C33.0587 31.34 34.0687 33.3 35.5687 34.8L44.0287 43.26L52.8087 52.04L68.9487 35.9Z" fill="#CFF4EC"/>
<path d="M53.8108 12.25H50.6308C49.8408 12.25 49.1908 11.61 49.1908 10.81V8.69005C49.1908 7.23005 48.0108 6.05005 46.5508 6.05005H8.69078C7.23078 6.05005 6.05078 7.23005 6.05078 8.69005V31.63C6.05078 43.38 16.0908 52.83 28.0408 51.85C29.8608 51.7 31.3408 52.9901 31.3408 54.8101V73.5L52.8008 52.05L47.7808 47.03C48.3408 47.59 48.3408 48.5 47.7808 49.0601L45.5308 51.3101C44.9708 51.8701 44.0608 51.8701 43.5008 51.3101L31.0708 38.89C27.2908 35.11 25.8708 29.6 27.5408 24.15C27.7408 23.5 28.0008 22.87 28.3108 22.28C30.9708 17.2 35.8908 14.29 41.2608 14.29C45.1108 14.29 48.3108 15.37 52.1308 19.19L52.2208 19.1C53.1408 18.18 54.1608 17.42 55.2408 16.79V10.82C55.2508 11.61 54.6108 12.25 53.8108 12.25Z" fill="#7869D8"/>
<path d="M52.8 52.05L31.34 73.51V54.82C31.34 52.99 29.86 51.71 28.04 51.86C16.09 52.84 6.05 43.39 6.05 31.64V8.69C6.05 7.23 7.23 6.05 8.69 6.05H46.55C48.01 6.05 49.19 7.23 49.19 8.69V10.81C49.19 11.6 49.83 12.25 50.63 12.25H53.81C54.6 12.25 55.25 11.61 55.25 10.81V9.06V8.69C55.25 3.89 51.36 0 46.56 0H8.69C3.89 0 0 3.89 0 8.69V31.63C0 45.81 11.25 57.4 25.29 57.96V74C25.29 75.94 26.15 77.83 27.75 78.94C31.1 81.08 34.02 79.4 35.13 78.29L73.23 40.19C79.03 34.39 79.03 24.95 73.18 19.09C68.33 14.24 60.93 13.48 55.26 16.78C54.18 17.41 53.16 18.16 52.24 19.09L52.15 19.18C48.33 15.36 45.13 14.28 41.28 14.28C35.91 14.28 30.99 17.19 28.33 22.27C28.02 22.87 27.76 23.5 27.56 24.14C25.89 29.59 27.31 35.1 31.09 38.88L43.5 51.31C44.06 51.87 44.97 51.87 45.53 51.31L47.78 49.06C48.34 48.5 48.34 47.59 47.78 47.03L35.56 34.82C34.06 33.32 33.05 31.35 32.92 29.24C32.77 26.81 33.65 24.49 35.35 22.79C37.06 21.08 39.37 20.21 41.8 20.36C43.92 20.49 45.89 21.5 47.38 23L51.08 26.7C51.66 27.28 52.6 27.28 53.18 26.7L56.5 23.38C59.91 19.97 65.47 19.97 68.94 23.43C72.38 26.87 72.38 32.48 68.94 35.92L52.8 52.05Z" fill="#1D1A4D"/>
</g>
<defs>
<clipPath id="clip0">
<rect width="407.78" height="84.57" fill="white"/>
</clipPath>
</defs>
</svg>
